<?xml version="1.0" encoding="UTF-8" standalone="no"?>
<svg
   height="100%"
   style="fill-rule:evenodd;clip-rule:evenodd;stroke-linejoin:round;stroke-miterlimit:2;"
   version="1.1"
   viewBox="0 0 512 512"
   width="100%"
   xml:space="preserve"
   id="svg3"
   sodipodi:docname="reddit.svg"
   inkscape:version="1.1.2 (0a00cf5339, 2022-02-04)"
   xmlns:inkscape="http://www.inkscape.org/namespaces/inkscape"
   xmlns:sodipodi="http://sodipodi.sourceforge.net/DTD/sodipodi-0.dtd"
   xmlns="http://www.w3.org/2000/svg"
   xmlns:svg="http://www.w3.org/2000/svg"><defs
     id="defs7"><filter
       inkscape:label="Black Light"
       inkscape:menu="Color"
       inkscape:menu-tooltip="Light areas turn to black"
       style="color-interpolation-filters:sRGB;"
       id="filter1039"
       x="-0.0009765625"
       y="-0.0009765625"
       width="1.0019531"
       height="1.0019531"><feColorMatrix
         type="luminanceToAlpha"
         result="result2"
         id="feColorMatrix1031" /><feComposite
         in2="SourceGraphic"
         operator="arithmetic"
         in="result2"
         k3="2"
         result="result4"
         id="feComposite1033" /><feBlend
         in="result4"
         mode="multiply"
         result="result3"
         in2="result2"
         id="feBlend1035" /><feComposite
         in2="SourceGraphic"
         operator="in"
         in="result3"
         id="feComposite1037" /></filter></defs><sodipodi:namedview
     id="namedview5"
     pagecolor="#ffffff"
     bordercolor="#666666"
     borderopacity="1.0"
     inkscape:pageshadow="2"
     inkscape:pageopacity="0.0"
     inkscape:pagecheckerboard="0"
     showgrid="false"
     inkscape:zoom="0.96143739"
     inkscape:cx="300.07154"
     inkscape:cy="202.30127"
     inkscape:window-width="1920"
     inkscape:window-height="1010"
     inkscape:window-x="0"
     inkscape:window-y="0"
     inkscape:window-maximized="1"
     inkscape:current-layer="svg3" /><path
     d="M256,0c141.29,0 256,114.71 256,256c0,141.29 -114.71,256 -256,256c-141.29,0 -256,-114.71 -256,-256c0,-141.29 114.71,-256 256,-256Zm170.667,256c0,-20.66 -16.768,-37.427 -37.427,-37.427c-10.18,0 -19.163,3.892 -25.75,10.48c-25.45,-18.265 -60.781,-30.241 -99.705,-31.738l17.066,-79.944l55.392,11.677c0.599,14.072 12.276,25.45 26.648,25.45c14.672,0 26.648,-11.976 26.648,-26.648c0,-14.671 -11.976,-26.648 -26.648,-26.648c-10.479,0 -19.462,5.989 -23.654,14.971l-61.979,-13.174c-1.796,-0.3 -3.593,0 -5.09,0.898c-1.497,0.898 -2.395,2.395 -2.994,4.192l-18.863,89.226c-39.822,1.197 -75.453,12.874 -101.202,31.738c-6.587,-6.288 -15.869,-10.48 -25.75,-10.48c-20.66,0 -37.427,16.767 -37.427,37.427c0,15.27 8.983,28.145 22.157,34.133c-0.599,3.593 -0.898,7.486 -0.898,11.378c0,57.488 66.769,103.897 149.408,103.897c82.638,0 149.408,-46.409 149.408,-103.897c0,-3.892 -0.299,-7.485 -0.898,-11.078c12.276,-5.989 21.558,-19.163 21.558,-34.433Zm-107.191,97.011c-18.264,18.264 -52.996,19.462 -63.177,19.462c-10.18,0 -45.211,-1.498 -63.176,-19.462c-2.695,-2.695 -2.695,-7.186 0,-9.881c2.695,-2.695 7.186,-2.695 9.881,0c11.377,11.378 35.929,15.569 53.595,15.569c17.665,0 41.918,-4.191 53.595,-15.569c2.695,-2.695 7.186,-2.695 9.881,0c2.096,2.994 2.096,7.186 -0.599,9.881Zm-148.809,-70.363c0,-14.671 11.976,-26.648 26.648,-26.648c14.671,0 26.648,11.977 26.648,26.648c0,14.671 -11.977,26.648 -26.648,26.648c-14.672,0 -26.648,-11.977 -26.648,-26.648Zm144.018,26.648c-14.671,0 -26.648,-11.977 -26.648,-26.648c0,-14.671 11.977,-26.648 26.648,-26.648c14.672,0 26.648,11.977 26.648,26.648c0,14.671 -11.976,26.648 -26.648,26.648Z"
     id="Artwork"
     style="filter:url(#filter1039);fill:#ffffff;stroke:#ffffff" /><path
     style="fill:#ffffff;stroke:#ffffff;stroke-width:1.04011"
     d="M 234.54465,510.58958 C 157.52044,503.90024 87.247047,462.42674 44.262508,398.29009 22.197313,365.3669 9.1417872,331.55025 2.930269,291.23061 c -2.57044432,-16.68504 -2.57044432,-54.04239 0,-70.72743 C 9.1953456,179.83588 23.635723,143.10231 46.066961,110.77164 82.462498,58.313912 138.0921,20.765734 200.22105,6.7226372 c 34.26756,-7.7455484 75.3757,-7.872727 110.14004,-0.3407464 75.02674,16.2551602 140.34782,67.4537202 174.3218,136.6331392 12.31952,25.0856 19.8544,48.50191 23.92999,74.36782 2.632,16.7041 3.20121,49.44387 1.164,66.95099 -5.64501,48.51143 -24.76591,94.1042 -55.4628,132.24814 -10.51122,13.06122 -31.05895,32.97548 -44.37287,43.00488 -50.57329,38.09696 -113.45539,56.38214 -175.39656,51.00272 z M 284.1566,404.0447 c 21.50105,-2.79907 38.48299,-7.73517 57.23794,-16.6372 15.86037,-7.52813 28.38514,-16.35592 39.48617,-27.83093 10.68863,-11.04873 16.92317,-20.87247 21.44056,-33.78386 2.72974,-7.80197 3.24075,-10.94526 3.63204,-22.34081 0.25045,-7.29377 0.83034,-13.2614 1.28866,-13.2614 2.57535,0 12.71543,-11.221 15.79742,-17.4814 3.12437,-6.34648 3.40544,-7.73478 3.40544,-16.82033 0,-8.55872 -0.37698,-10.70716 -2.77728,-15.8279 -5.80118,-12.37607 -17.94585,-20.66286 -31.45805,-21.46505 -9.48174,-0.56292 -17.11375,1.25634 -23.60997,5.62798 l -5.30082,3.56719 -8.77804,-5.30219 c -21.65006,-13.07725 -49.7962,-21.97834 -78.22241,-24.73747 -5.92455,-0.57506 -10.96507,-1.23871 -11.20115,-1.47479 -0.58536,-0.58536 15.63139,-76.38961 16.53536,-77.29357 0.3962,-0.3962 12.6079,1.76413 27.1371,4.80074 l 26.41673,5.5211 1.63584,5.815 c 3.06184,10.88412 12.24439,18.55203 23.43138,19.56643 16.45472,1.49205 29.26743,-10.22755 29.26743,-26.7705 0,-20.01419 -19.98921,-32.953476 -37.97157,-24.57952 -4.73024,2.20277 -11.10563,8.01159 -12.11437,11.0378 -0.27865,0.83599 -10.05702,-0.85352 -32.01016,-5.53074 -31.83856,-6.78335 -34.40066,-7.02651 -37.29464,-3.53948 -0.68907,0.83027 -5.4924,21.57627 -10.67408,46.10223 -5.18169,24.52596 -9.53444,44.70583 -9.67276,44.84415 -0.13834,0.13833 -5.5379,0.75003 -11.99905,1.35934 -30.88847,2.91288 -58.61106,11.67539 -80.91067,25.57413 l -7.464,4.65211 -4.90829,-3.11273 c -7.93347,-5.03126 -14.06727,-6.61032 -23.71044,-6.10394 -14.01471,0.73596 -24.690141,7.78032 -31.565099,20.82874 -2.635927,5.00289 -2.896746,6.48124 -2.896746,16.41907 0,9.02626 0.393281,11.77243 2.266682,15.82758 2.654563,5.74603 10.282401,14.24359 15.133243,16.85872 l 3.40226,1.83418 0.0833,11.60279 c 0.16696,23.24257 8.28165,41.02563 27.3831,60.00916 18.46905,18.35505 44.9509,31.86791 76.10621,38.83461 6.53371,1.46103 15.62387,3.07945 20.20035,3.5965 13.63423,1.54043 39.91906,1.35003 53.25233,-0.38574 z"
     id="path1565" /><path
     style="fill:#ffffff;stroke:#ffffff;stroke-width:1.04011"
     d="m 190.85333,307.94066 c -14.44612,-4.39432 -22.80986,-19.4583 -18.31578,-32.9887 4.61519,-13.89503 18.81617,-21.05455 33.28342,-16.78006 5.71316,1.688 14.32958,10.30443 16.01759,16.01758 4.29459,14.53532 -3.1934,29.07865 -17.13164,33.27344 -5.21687,1.57005 -9.74887,1.72633 -13.85359,0.47774 z"
     id="path1604" /><path
     style="fill:#ffffff;stroke:#ffffff;stroke-width:1.04011"
     d="m 307.05858,307.47971 c -12.17016,-4.53386 -19.35259,-15.31334 -18.12548,-27.2029 1.39007,-13.4685 12.26574,-23.34948 25.69997,-23.34948 21.57255,0 33.60119,24.54948 20.46634,41.77015 -5.93735,7.78427 -19.40086,12.00097 -28.04083,8.78223 z"
     id="path1643" /><path
     style="fill:#ffffff;stroke:#ffffff;stroke-width:1.04011"
     d="m 243.3703,371.26558 c -19.28065,-1.87368 -39.21902,-8.92003 -47.59633,-16.82084 -4.2182,-3.97828 -5.02957,-7.82409 -2.23934,-10.61431 3.08766,-3.08766 5.2637,-2.59465 13.53148,3.06569 12.73581,8.71928 30.91395,12.57738 54.91327,11.65472 20.82997,-0.80081 36.68932,-5.34929 46.77386,-13.41478 4.5094,-3.60657 8.68776,-4.1167 10.73923,-1.31114 3.93785,5.38531 -0.9384,11.40832 -14.74044,18.20699 -10.38366,5.11483 -20.85393,7.7918 -36.03906,9.21423 -12.86062,1.20469 -13.14398,1.2049 -25.34267,0.0194 z"
     id="path1682" /></svg>
